<svg xmlns="http://www.w3.org/2000/svg" version="1.1" xmlns:xlink="http://www.w3.org/1999/xlink" xmlns:svgjs="http://svgjs.dev/svgjs" width="2000" height="1247" viewBox="0 0 2000 1247"><g transform="matrix(1,0,0,1,-1.2121212121212466,0.504858299595071)"><svg viewBox="0 0 396 247" data-background-color="#4b91f1" preserveAspectRatio="xMidYMid meet" height="1247" width="2000" xmlns="http://www.w3.org/2000/svg" xmlns:xlink="http://www.w3.org/1999/xlink"><g id="tight-bounds" transform="matrix(1,0,0,1,0.2400000000000091,-0.09999999999999432)"><svg viewBox="0 0 395.52 247.2" height="247.2" width="395.52"><g><svg></svg></g><g><svg viewBox="0 0 395.52 247.2" height="247.2" width="395.52"><g transform="matrix(1,0,0,1,39.55199999999999,85.57575965665237)"><svg viewBox="0 0 316.416 76.04848068669527" height="76.04848068669527" width="316.416"><g><svg viewBox="0 0 316.416 76.04848068669527" height="76.04848068669527" width="316.416"><g><svg viewBox="0 0 316.416 76.04848068669527" height="76.04848068669527" width="316.416"><g id="textblocktransform"><svg viewBox="0 0 316.416 76.04848068669527" height="76.04848068669527" width="316.416" id="textblock"><g><svg viewBox="0 0 316.416 76.04848068669527" height="76.04848068669527" width="316.416"><g transform="matrix(1,0,0,1,0,0)"><svg width="316.416" viewBox="5.860000133514404 -35.060001373291016 147.88999938964844 35.55000305175781" height="76.04848068669527" data-palette-color="#77d4fc"><path d="M22.63-35.01L22.63-35.01Q27.49-35.01 32.23-33.57L32.23-33.57 33.23-33.28 31.23-27.61 30.3-27.88Q25.88-29.1 22.24-29.1L22.24-29.1Q18.65-29.1 16.1-27.93 13.55-26.76 13.55-24.93L13.55-24.93Q13.55-23.73 14.69-22.83 15.82-21.92 17.63-21.3 19.43-20.68 21.62-20.07 23.8-19.46 26-18.65 28.2-17.85 30-16.8 31.81-15.75 32.95-14 34.08-12.26 34.08-9.99L34.08-9.99Q34.08-8.52 33.58-7.09 33.08-5.66 31.9-4.27 30.71-2.88 28.97-1.84 27.22-0.81 24.52-0.16 21.83 0.49 18.48 0.49 15.14 0.49 12.45-0.13 9.77-0.76 6.76-1.93L6.76-1.93 5.86-2.27 7.93-8.18 8.89-7.81Q15.06-5.62 19.07-5.62L19.07-5.62Q22.83-5.62 25.16-6.76 27.49-7.91 27.49-9.79L27.49-9.79Q27.49-10.84 26.78-11.67 26.07-12.5 24.88-13.07 23.68-13.65 22.13-14.14 20.58-14.62 18.87-15.09 17.16-15.55 15.45-16.09 13.75-16.63 12.19-17.38 10.64-18.14 9.45-19.09 8.25-20.04 7.54-21.47 6.84-22.9 6.84-24.66L6.84-24.66Q6.84-29.05 11.15-32.03 15.45-35.01 22.63-35.01ZM39.3-29.03L39.3-34.69 70.65-34.69 70.65-29.03 58.05-29.03 58.05 0 51.9 0 51.9-29.03 39.3-29.03ZM94.36-35.06L94.36-35.06Q99.65-35.06 103.78-32.98 107.91-30.91 110.27-26.94 112.64-22.97 112.64-17.72L112.64-17.72Q112.64-12.4 110.32-8.29 108-4.17 103.8-1.9 99.6 0.37 94.16 0.37L94.16 0.37Q90.57 0.37 87.35-0.74 84.13-1.86 81.57-3.99 79.02-6.13 77.52-9.55 76.02-12.96 76.02-17.26L76.02-17.26Q76.02-22.61 78.36-26.67 80.71-30.74 84.86-32.9 89.01-35.06 94.36-35.06ZM97.57-28.99Q95.87-29.42 94.11-29.42 92.35-29.42 90.69-28.99 89.03-28.56 87.51-27.65 85.98-26.73 84.83-25.39 83.69-24.05 83-22.08 82.32-20.12 82.32-17.75L82.32-17.75Q82.32-12.11 85.81-8.69 89.3-5.27 94.53-5.27L94.53-5.27Q96.7-5.27 98.74-5.98 100.78-6.69 102.51-8.08 104.24-9.47 105.29-11.87 106.34-14.26 106.34-17.31L106.34-17.31Q106.34-19.8 105.61-21.86 104.88-23.93 103.67-25.29 102.46-26.66 100.86-27.61 99.26-28.56 97.57-28.99ZM129.17-34.69L129.17-18.8 144.99-34.69 152.87-34.69 136.2-18.09 153.75 0 145.77 0 129.17-16.8 129.17 0 123.01 0 123.01-34.69 129.17-34.69Z" opacity="1" transform="matrix(1,0,0,1,0,0)" fill="#000000" class="wordmark-text-0" data-fill-palette-color="primary" id="text-0"></path></svg></g></svg></g></svg></g></svg></g></svg></g></svg></g><g><path xmlns="http://www.w3.org/2000/svg" d="M0 247.2v-247.2h395.52v247.2zM388.662 240.342v-233.484h-381.804v233.484z" fill="#000000" fill-rule="nonzero" stroke="none" stroke-width="1" stroke-linecap="butt" stroke-linejoin="miter" stroke-miterlimit="10" stroke-dasharray="" stroke-dashoffset="0" font-family="none" font-weight="none" font-size="none" text-anchor="none" style="mix-blend-mode: normal" data-fill-palette-color="tertiary"></path></g></svg></g><defs></defs></svg><rect width="395.52" height="247.2" fill="none" stroke="none" visibility="hidden"></rect></g></svg></g></svg>