<svg xmlns="http://www.w3.org/2000/svg" version="1.1" xmlns:xlink="http://www.w3.org/1999/xlink" xmlns:svgjs="http://svgjs.dev/svgjs" width="128" height="128" viewBox="0 0 128 128"><g transform="matrix(0.8046875,0,0,0.8046875,12.333870967741937,12.333870967741937)"><svg viewBox="0 0 155 155" data-background-color="#4b91f1" preserveAspectRatio="xMidYMid meet" height="128" width="128" xmlns="http://www.w3.org/2000/svg" xmlns:xlink="http://www.w3.org/1999/xlink"><g id="tight-bounds" transform="matrix(1,0,0,1,0.25,0.25)"><svg viewBox="0 0 154.5 154.5" height="154.5" width="154.5"><g><svg></svg></g><g><svg viewBox="0 0 154.5 154.5" height="154.5" width="154.5"><g transform="matrix(1,0,0,1,50.68080288858322,43.83165)"><svg viewBox="0 0 53.138394222833554 66.8367" height="66.8367" width="53.138394222833554"><g><svg viewBox="0 0 53.138394222833554 66.8367" height="66.8367" width="53.138394222833554"><g><svg viewBox="0 0 53.138394222833554 66.8367" height="66.8367" width="53.138394222833554"><g id="textblocktransform"><svg viewBox="0 0 53.138394222833554 66.8367" height="66.8367" width="53.138394222833554" id="textblock"><g><svg viewBox="0 0 53.138394222833554 66.8367" height="66.8367" width="53.138394222833554"><g transform="matrix(1,0,0,1,0,0)"><svg width="53.138394222833554" viewBox="5.86 -35.01 28.22 35.5" height="66.8367" data-palette-color="#77d4fc"><path d="M22.63-35.01L22.63-35.01Q27.49-35.01 32.23-33.57L32.23-33.57 33.23-33.28 31.23-27.61 30.3-27.88Q25.88-29.1 22.24-29.1L22.24-29.1Q18.65-29.1 16.1-27.93 13.55-26.76 13.55-24.93L13.55-24.93Q13.55-23.73 14.69-22.83 15.82-21.92 17.63-21.3 19.43-20.68 21.62-20.07 23.8-19.46 26-18.65 28.2-17.85 30-16.8 31.81-15.75 32.95-14 34.08-12.26 34.08-9.99L34.08-9.99Q34.08-8.52 33.58-7.09 33.08-5.66 31.9-4.27 30.71-2.88 28.97-1.84 27.22-0.81 24.52-0.16 21.83 0.49 18.48 0.49 15.14 0.49 12.45-0.13 9.77-0.76 6.76-1.93L6.76-1.93 5.86-2.27 7.93-8.18 8.89-7.81Q15.06-5.62 19.07-5.62L19.07-5.62Q22.83-5.62 25.16-6.76 27.49-7.91 27.49-9.79L27.49-9.79Q27.49-10.84 26.78-11.67 26.07-12.5 24.88-13.07 23.68-13.65 22.13-14.14 20.58-14.62 18.87-15.09 17.16-15.55 15.45-16.09 13.75-16.63 12.19-17.38 10.64-18.14 9.45-19.09 8.25-20.04 7.54-21.47 6.84-22.9 6.84-24.66L6.84-24.66Q6.84-29.05 11.15-32.03 15.45-35.01 22.63-35.01Z" opacity="1" transform="matrix(1,0,0,1,0,0)" fill="#77d4fc" class="wordmark-text-0" data-fill-palette-color="primary" id="text-0"></path></svg></g></svg></g></svg></g></svg></g></svg></g></svg></g><g><path d="M0 154.5v-154.5h154.5v154.5zM148.473 148.473v-142.446h-142.446v142.446z" fill="#77d4fc" fill-rule="nonzero" stroke="none" stroke-width="1" stroke-linecap="butt" stroke-linejoin="miter" stroke-miterlimit="10" stroke-dasharray="" stroke-dashoffset="0" font-family="none" font-weight="none" font-size="none" text-anchor="none" style="mix-blend-mode: normal" data-fill-palette-color="tertiary"></path></g></svg></g><defs></defs></svg><rect width="154.5" height="154.5" fill="none" stroke="none" visibility="hidden"></rect></g></svg></g></svg>